<mxfile host="app.diagrams.net" modified="2023-11-08T00:38:51.371Z" agent="Mozilla/5.0 (Windows NT 10.0; Win64; x64) AppleWebKit/537.36 (KHTML, like Gecko) Chrome/119.0.0.0 Safari/537.36" etag="qWEv54Sbe2l-InA6SVBd" version="22.0.8" type="device">
  <diagram name="Страница — 1" id="5VBkMsGPJQ_v8e2kNSVR">
    <mxGraphModel dx="1313" dy="678" grid="1" gridSize="10" guides="1" tooltips="1" connect="1" arrows="1" fold="1" page="1" pageScale="1" pageWidth="1169" pageHeight="827" math="0" shadow="0">
      <root>
        <mxCell id="0" />
        <mxCell id="1" parent="0" />
        <mxCell id="2UvRARKPYpcAx_hyR-RR-64" value="Pokemon" style="html=1;whiteSpace=wrap;" parent="1" vertex="1">
          <mxGeometry x="50" y="214" width="80" height="30" as="geometry" />
        </mxCell>
        <mxCell id="2UvRARKPYpcAx_hyR-RR-65" value="Numel" style="html=1;whiteSpace=wrap;" parent="1" vertex="1">
          <mxGeometry x="190" y="214" width="80" height="30" as="geometry" />
        </mxCell>
        <mxCell id="2UvRARKPYpcAx_hyR-RR-66" value="Honedge" style="html=1;whiteSpace=wrap;" parent="1" vertex="1">
          <mxGeometry x="190" y="134" width="80" height="30" as="geometry" />
        </mxCell>
        <mxCell id="2UvRARKPYpcAx_hyR-RR-67" value="Castform" style="html=1;whiteSpace=wrap;" parent="1" vertex="1">
          <mxGeometry x="190" y="294" width="80" height="30" as="geometry" />
        </mxCell>
        <mxCell id="2UvRARKPYpcAx_hyR-RR-68" value="Doublade" style="html=1;whiteSpace=wrap;" parent="1" vertex="1">
          <mxGeometry x="320" y="134" width="80" height="30" as="geometry" />
        </mxCell>
        <mxCell id="2UvRARKPYpcAx_hyR-RR-69" value="Aegislash_Blade" style="html=1;whiteSpace=wrap;" parent="1" vertex="1">
          <mxGeometry x="450" y="134" width="100" height="30" as="geometry" />
        </mxCell>
        <mxCell id="2UvRARKPYpcAx_hyR-RR-71" value="Camerupt" style="html=1;whiteSpace=wrap;" parent="1" vertex="1">
          <mxGeometry x="320" y="214" width="80" height="30" as="geometry" />
        </mxCell>
        <mxCell id="2UvRARKPYpcAx_hyR-RR-73" value="" style="edgeStyle=elbowEdgeStyle;elbow=horizontal;endArrow=classic;html=1;curved=0;rounded=0;endSize=8;startSize=8;exitX=0;exitY=0.5;exitDx=0;exitDy=0;" parent="1" source="2UvRARKPYpcAx_hyR-RR-65" target="2UvRARKPYpcAx_hyR-RR-64" edge="1">
          <mxGeometry width="50" height="50" relative="1" as="geometry">
            <mxPoint x="330" y="224" as="sourcePoint" />
            <mxPoint x="380" y="174" as="targetPoint" />
          </mxGeometry>
        </mxCell>
        <mxCell id="2UvRARKPYpcAx_hyR-RR-74" value="" style="edgeStyle=elbowEdgeStyle;elbow=horizontal;endArrow=classic;html=1;curved=0;rounded=0;endSize=8;startSize=8;exitX=0;exitY=0.5;exitDx=0;exitDy=0;entryX=1;entryY=0.5;entryDx=0;entryDy=0;" parent="1" source="2UvRARKPYpcAx_hyR-RR-66" target="2UvRARKPYpcAx_hyR-RR-64" edge="1">
          <mxGeometry width="50" height="50" relative="1" as="geometry">
            <mxPoint x="90" y="174" as="sourcePoint" />
            <mxPoint x="140" y="124" as="targetPoint" />
          </mxGeometry>
        </mxCell>
        <mxCell id="2UvRARKPYpcAx_hyR-RR-75" value="" style="edgeStyle=elbowEdgeStyle;elbow=horizontal;endArrow=classic;html=1;curved=0;rounded=0;endSize=8;startSize=8;entryX=1;entryY=0.5;entryDx=0;entryDy=0;exitX=0;exitY=0.5;exitDx=0;exitDy=0;" parent="1" source="2UvRARKPYpcAx_hyR-RR-67" target="2UvRARKPYpcAx_hyR-RR-64" edge="1">
          <mxGeometry width="50" height="50" relative="1" as="geometry">
            <mxPoint x="130" y="334" as="sourcePoint" />
            <mxPoint x="180" y="284" as="targetPoint" />
          </mxGeometry>
        </mxCell>
        <mxCell id="2UvRARKPYpcAx_hyR-RR-76" value="" style="edgeStyle=elbowEdgeStyle;elbow=horizontal;endArrow=classic;html=1;curved=0;rounded=0;endSize=8;startSize=8;exitX=0;exitY=0.5;exitDx=0;exitDy=0;entryX=1;entryY=0.5;entryDx=0;entryDy=0;" parent="1" source="2UvRARKPYpcAx_hyR-RR-71" target="2UvRARKPYpcAx_hyR-RR-65" edge="1">
          <mxGeometry width="50" height="50" relative="1" as="geometry">
            <mxPoint x="350" y="334" as="sourcePoint" />
            <mxPoint x="400" y="284" as="targetPoint" />
          </mxGeometry>
        </mxCell>
        <mxCell id="2UvRARKPYpcAx_hyR-RR-77" value="" style="edgeStyle=elbowEdgeStyle;elbow=horizontal;endArrow=classic;html=1;curved=0;rounded=0;endSize=8;startSize=8;exitX=0;exitY=0.5;exitDx=0;exitDy=0;entryX=1;entryY=0.5;entryDx=0;entryDy=0;" parent="1" source="2UvRARKPYpcAx_hyR-RR-68" target="2UvRARKPYpcAx_hyR-RR-66" edge="1">
          <mxGeometry width="50" height="50" relative="1" as="geometry">
            <mxPoint x="420" y="244" as="sourcePoint" />
            <mxPoint x="470" y="194" as="targetPoint" />
          </mxGeometry>
        </mxCell>
        <mxCell id="2UvRARKPYpcAx_hyR-RR-78" value="" style="edgeStyle=elbowEdgeStyle;elbow=horizontal;endArrow=classic;html=1;curved=0;rounded=0;endSize=8;startSize=8;exitX=0;exitY=0.5;exitDx=0;exitDy=0;entryX=1;entryY=0.5;entryDx=0;entryDy=0;" parent="1" source="2UvRARKPYpcAx_hyR-RR-69" target="2UvRARKPYpcAx_hyR-RR-68" edge="1">
          <mxGeometry width="50" height="50" relative="1" as="geometry">
            <mxPoint x="450" y="234" as="sourcePoint" />
            <mxPoint x="500" y="184" as="targetPoint" />
          </mxGeometry>
        </mxCell>
        <mxCell id="2UvRARKPYpcAx_hyR-RR-82" value="Project: Pokemon_Battles" style="swimlane;whiteSpace=wrap;html=1;" parent="1" vertex="1">
          <mxGeometry x="10" y="44" width="1150" height="746" as="geometry" />
        </mxCell>
        <mxCell id="2UvRARKPYpcAx_hyR-RR-87" value="package: area" style="swimlane;whiteSpace=wrap;html=1;" parent="2UvRARKPYpcAx_hyR-RR-82" vertex="1">
          <mxGeometry x="590" y="56" width="140" height="244" as="geometry" />
        </mxCell>
        <mxCell id="2UvRARKPYpcAx_hyR-RR-86" value="WeatherStatus" style="html=1;whiteSpace=wrap;" parent="2UvRARKPYpcAx_hyR-RR-87" vertex="1">
          <mxGeometry x="10" y="84" width="90" height="36" as="geometry" />
        </mxCell>
        <mxCell id="2UvRARKPYpcAx_hyR-RR-88" value="Main" style="html=1;whiteSpace=wrap;" parent="2UvRARKPYpcAx_hyR-RR-82" vertex="1">
          <mxGeometry x="780" y="136" width="130" height="64" as="geometry" />
        </mxCell>
        <mxCell id="2UvRARKPYpcAx_hyR-RR-80" value="package: pokemons" style="swimlane;whiteSpace=wrap;html=1;" parent="2UvRARKPYpcAx_hyR-RR-82" vertex="1">
          <mxGeometry x="30" y="56" width="520" height="264" as="geometry" />
        </mxCell>
        <mxCell id="sog0CngRyqNYPOwjsTEq-12" value="" style="endArrow=diamondThin;endFill=0;endSize=24;html=1;rounded=0;entryX=0.5;entryY=1;entryDx=0;entryDy=0;fillColor=#a20025;strokeColor=#6F0000;" edge="1" parent="2UvRARKPYpcAx_hyR-RR-80" target="2UvRARKPYpcAx_hyR-RR-88">
          <mxGeometry width="160" relative="1" as="geometry">
            <mxPoint x="190" y="170" as="sourcePoint" />
            <mxPoint x="815" y="180" as="targetPoint" />
            <Array as="points">
              <mxPoint x="815" y="170" />
            </Array>
          </mxGeometry>
        </mxCell>
        <mxCell id="sog0CngRyqNYPOwjsTEq-15" value="" style="endArrow=none;html=1;rounded=0;exitX=0.5;exitY=0;exitDx=0;exitDy=0;fillColor=#a20025;strokeColor=#6F0000;" edge="1" parent="2UvRARKPYpcAx_hyR-RR-80" source="2UvRARKPYpcAx_hyR-RR-67">
          <mxGeometry width="50" height="50" relative="1" as="geometry">
            <mxPoint x="180" y="230" as="sourcePoint" />
            <mxPoint x="190" y="170" as="targetPoint" />
          </mxGeometry>
        </mxCell>
        <mxCell id="sog0CngRyqNYPOwjsTEq-16" value="" style="endArrow=none;html=1;rounded=0;entryX=0.5;entryY=1;entryDx=0;entryDy=0;fillColor=#a20025;strokeColor=#6F0000;" edge="1" parent="2UvRARKPYpcAx_hyR-RR-80" target="2UvRARKPYpcAx_hyR-RR-71">
          <mxGeometry width="50" height="50" relative="1" as="geometry">
            <mxPoint x="320" y="170" as="sourcePoint" />
            <mxPoint x="320" y="150" as="targetPoint" />
          </mxGeometry>
        </mxCell>
        <mxCell id="sog0CngRyqNYPOwjsTEq-17" value="" style="endArrow=none;html=1;rounded=0;entryX=0.5;entryY=1;entryDx=0;entryDy=0;fillColor=#a20025;strokeColor=#6F0000;" edge="1" parent="2UvRARKPYpcAx_hyR-RR-80" target="2UvRARKPYpcAx_hyR-RR-69">
          <mxGeometry width="50" height="50" relative="1" as="geometry">
            <mxPoint x="460" y="170" as="sourcePoint" />
            <mxPoint x="480" y="100" as="targetPoint" />
          </mxGeometry>
        </mxCell>
        <mxCell id="sog0CngRyqNYPOwjsTEq-18" value="" style="endArrow=none;html=1;rounded=0;fillColor=#a20025;strokeColor=#6F0000;" edge="1" parent="2UvRARKPYpcAx_hyR-RR-80">
          <mxGeometry width="50" height="50" relative="1" as="geometry">
            <mxPoint x="190" y="90" as="sourcePoint" />
            <mxPoint x="460" y="90" as="targetPoint" />
          </mxGeometry>
        </mxCell>
        <mxCell id="sog0CngRyqNYPOwjsTEq-19" value="" style="endArrow=none;html=1;rounded=0;entryX=0.5;entryY=1;entryDx=0;entryDy=0;fillColor=#a20025;strokeColor=#6F0000;" edge="1" parent="2UvRARKPYpcAx_hyR-RR-80" target="2UvRARKPYpcAx_hyR-RR-66">
          <mxGeometry width="50" height="50" relative="1" as="geometry">
            <mxPoint x="190" y="90" as="sourcePoint" />
            <mxPoint x="240" y="80" as="targetPoint" />
          </mxGeometry>
        </mxCell>
        <mxCell id="sog0CngRyqNYPOwjsTEq-20" value="" style="endArrow=none;html=1;rounded=0;entryX=0.5;entryY=1;entryDx=0;entryDy=0;fillColor=#a20025;strokeColor=#6F0000;" edge="1" parent="2UvRARKPYpcAx_hyR-RR-80" target="2UvRARKPYpcAx_hyR-RR-68">
          <mxGeometry width="50" height="50" relative="1" as="geometry">
            <mxPoint x="320" y="90" as="sourcePoint" />
            <mxPoint x="350" y="70" as="targetPoint" />
          </mxGeometry>
        </mxCell>
        <mxCell id="2UvRARKPYpcAx_hyR-RR-79" value="package: attacks" style="swimlane;whiteSpace=wrap;html=1;" parent="2UvRARKPYpcAx_hyR-RR-82" vertex="1">
          <mxGeometry x="30" y="356" width="1090" height="364" as="geometry" />
        </mxCell>
        <mxCell id="2UvRARKPYpcAx_hyR-RR-31" value="CosmicPower" style="html=1;whiteSpace=wrap;" parent="2UvRARKPYpcAx_hyR-RR-79" vertex="1">
          <mxGeometry x="220" y="120" width="80" height="30" as="geometry" />
        </mxCell>
        <mxCell id="2UvRARKPYpcAx_hyR-RR-13" value="StatusMove" style="html=1;whiteSpace=wrap;" parent="2UvRARKPYpcAx_hyR-RR-79" vertex="1">
          <mxGeometry x="160" y="250" width="80" height="30" as="geometry" />
        </mxCell>
        <mxCell id="2UvRARKPYpcAx_hyR-RR-41" value="" style="edgeStyle=elbowEdgeStyle;elbow=vertical;endArrow=classic;html=1;curved=0;rounded=0;endSize=8;startSize=8;exitX=0.5;exitY=1;exitDx=0;exitDy=0;entryX=0.5;entryY=0;entryDx=0;entryDy=0;" parent="2UvRARKPYpcAx_hyR-RR-79" source="2UvRARKPYpcAx_hyR-RR-31" target="2UvRARKPYpcAx_hyR-RR-13" edge="1">
          <mxGeometry width="50" height="50" relative="1" as="geometry">
            <mxPoint x="110" y="250" as="sourcePoint" />
            <mxPoint x="180" y="160" as="targetPoint" />
            <Array as="points" />
          </mxGeometry>
        </mxCell>
        <mxCell id="2UvRARKPYpcAx_hyR-RR-16" value="PhysicalMove" style="html=1;whiteSpace=wrap;" parent="2UvRARKPYpcAx_hyR-RR-79" vertex="1">
          <mxGeometry x="620" y="180" width="80" height="30" as="geometry" />
        </mxCell>
        <mxCell id="2UvRARKPYpcAx_hyR-RR-53" value="Facade" style="html=1;whiteSpace=wrap;" parent="2UvRARKPYpcAx_hyR-RR-79" vertex="1">
          <mxGeometry x="690" y="110" width="80" height="30" as="geometry" />
        </mxCell>
        <mxCell id="2UvRARKPYpcAx_hyR-RR-58" value="Tackle" style="html=1;whiteSpace=wrap;" parent="2UvRARKPYpcAx_hyR-RR-79" vertex="1">
          <mxGeometry x="690" y="40" width="80" height="30" as="geometry" />
        </mxCell>
        <mxCell id="2UvRARKPYpcAx_hyR-RR-59" value="" style="edgeStyle=elbowEdgeStyle;elbow=vertical;endArrow=classic;html=1;curved=0;rounded=0;endSize=8;startSize=8;exitX=0.5;exitY=1;exitDx=0;exitDy=0;entryX=0.5;entryY=0;entryDx=0;entryDy=0;" parent="2UvRARKPYpcAx_hyR-RR-79" source="2UvRARKPYpcAx_hyR-RR-54" target="2UvRARKPYpcAx_hyR-RR-16" edge="1">
          <mxGeometry width="50" height="50" relative="1" as="geometry">
            <mxPoint x="530" y="220" as="sourcePoint" />
            <mxPoint x="660" y="160" as="targetPoint" />
            <Array as="points">
              <mxPoint x="620" y="150" />
            </Array>
          </mxGeometry>
        </mxCell>
        <mxCell id="2UvRARKPYpcAx_hyR-RR-60" value="" style="edgeStyle=elbowEdgeStyle;elbow=vertical;endArrow=classic;html=1;curved=0;rounded=0;endSize=8;startSize=8;entryX=0.5;entryY=0;entryDx=0;entryDy=0;exitX=0.5;exitY=1;exitDx=0;exitDy=0;" parent="2UvRARKPYpcAx_hyR-RR-79" source="2UvRARKPYpcAx_hyR-RR-53" target="2UvRARKPYpcAx_hyR-RR-16" edge="1">
          <mxGeometry width="50" height="50" relative="1" as="geometry">
            <mxPoint x="740" y="220" as="sourcePoint" />
            <mxPoint x="660" y="150" as="targetPoint" />
            <Array as="points">
              <mxPoint x="700" y="150" />
            </Array>
          </mxGeometry>
        </mxCell>
        <mxCell id="2UvRARKPYpcAx_hyR-RR-61" value="" style="edgeStyle=elbowEdgeStyle;elbow=vertical;endArrow=classic;html=1;curved=0;rounded=0;endSize=8;startSize=8;exitX=0.5;exitY=1;exitDx=0;exitDy=0;entryX=0.5;entryY=0;entryDx=0;entryDy=0;" parent="2UvRARKPYpcAx_hyR-RR-79" source="2UvRARKPYpcAx_hyR-RR-56" target="2UvRARKPYpcAx_hyR-RR-16" edge="1">
          <mxGeometry width="50" height="50" relative="1" as="geometry">
            <mxPoint x="470" y="259.28932188134524" as="sourcePoint" />
            <mxPoint x="630" y="160" as="targetPoint" />
            <Array as="points">
              <mxPoint x="620" y="90" />
            </Array>
          </mxGeometry>
        </mxCell>
        <mxCell id="2UvRARKPYpcAx_hyR-RR-62" value="" style="edgeStyle=elbowEdgeStyle;elbow=vertical;endArrow=classic;html=1;curved=0;rounded=0;endSize=8;startSize=8;exitX=0.5;exitY=1;exitDx=0;exitDy=0;entryX=0.5;entryY=0;entryDx=0;entryDy=0;" parent="2UvRARKPYpcAx_hyR-RR-79" source="2UvRARKPYpcAx_hyR-RR-58" target="2UvRARKPYpcAx_hyR-RR-16" edge="1">
          <mxGeometry width="50" height="50" relative="1" as="geometry">
            <mxPoint x="790" y="280" as="sourcePoint" />
            <mxPoint x="650" y="170" as="targetPoint" />
            <Array as="points">
              <mxPoint x="700" y="90" />
            </Array>
          </mxGeometry>
        </mxCell>
        <mxCell id="2UvRARKPYpcAx_hyR-RR-56" value="IronHead" style="html=1;whiteSpace=wrap;" parent="2UvRARKPYpcAx_hyR-RR-79" vertex="1">
          <mxGeometry x="545" y="40" width="80" height="30" as="geometry" />
        </mxCell>
        <mxCell id="2UvRARKPYpcAx_hyR-RR-54" value="StoneEdge" style="html=1;whiteSpace=wrap;" parent="2UvRARKPYpcAx_hyR-RR-79" vertex="1">
          <mxGeometry x="545" y="110" width="80" height="30" as="geometry" />
        </mxCell>
        <mxCell id="2UvRARKPYpcAx_hyR-RR-11" value="DamageMove" style="html=1;whiteSpace=wrap;" parent="2UvRARKPYpcAx_hyR-RR-79" vertex="1">
          <mxGeometry x="770" y="250" width="80" height="30" as="geometry" />
        </mxCell>
        <mxCell id="2UvRARKPYpcAx_hyR-RR-35" value="" style="edgeStyle=elbowEdgeStyle;elbow=vertical;endArrow=classic;html=1;curved=0;rounded=0;endSize=8;startSize=8;entryX=0.5;entryY=0;entryDx=0;entryDy=0;exitX=0.5;exitY=1;exitDx=0;exitDy=0;" parent="2UvRARKPYpcAx_hyR-RR-79" source="2UvRARKPYpcAx_hyR-RR-16" target="2UvRARKPYpcAx_hyR-RR-11" edge="1">
          <mxGeometry width="50" height="50" relative="1" as="geometry">
            <mxPoint x="820" y="170" as="sourcePoint" />
            <mxPoint x="1160" y="40" as="targetPoint" />
            <Array as="points">
              <mxPoint x="740" y="220" />
            </Array>
          </mxGeometry>
        </mxCell>
        <mxCell id="2UvRARKPYpcAx_hyR-RR-17" value="SpecialMove" style="html=1;whiteSpace=wrap;" parent="2UvRARKPYpcAx_hyR-RR-79" vertex="1">
          <mxGeometry x="900" y="180" width="80" height="30" as="geometry" />
        </mxCell>
        <mxCell id="2UvRARKPYpcAx_hyR-RR-36" value="" style="edgeStyle=elbowEdgeStyle;elbow=vertical;endArrow=classic;html=1;curved=0;rounded=0;endSize=8;startSize=8;exitX=0.5;exitY=1;exitDx=0;exitDy=0;entryX=0.5;entryY=0;entryDx=0;entryDy=0;" parent="2UvRARKPYpcAx_hyR-RR-79" source="2UvRARKPYpcAx_hyR-RR-17" target="2UvRARKPYpcAx_hyR-RR-11" edge="1">
          <mxGeometry width="50" height="50" relative="1" as="geometry">
            <mxPoint x="1110" y="90" as="sourcePoint" />
            <mxPoint x="1160" y="40" as="targetPoint" />
            <Array as="points">
              <mxPoint x="880" y="220" />
            </Array>
          </mxGeometry>
        </mxCell>
        <mxCell id="2UvRARKPYpcAx_hyR-RR-45" value="Flamethrower" style="html=1;whiteSpace=wrap;" parent="2UvRARKPYpcAx_hyR-RR-79" vertex="1">
          <mxGeometry x="990" y="80" width="80" height="30" as="geometry" />
        </mxCell>
        <mxCell id="2UvRARKPYpcAx_hyR-RR-50" value="" style="edgeStyle=elbowEdgeStyle;elbow=vertical;endArrow=classic;html=1;curved=0;rounded=0;endSize=8;startSize=8;exitX=0.5;exitY=1;exitDx=0;exitDy=0;entryX=0.5;entryY=0;entryDx=0;entryDy=0;" parent="2UvRARKPYpcAx_hyR-RR-79" source="2UvRARKPYpcAx_hyR-RR-45" target="2UvRARKPYpcAx_hyR-RR-17" edge="1">
          <mxGeometry width="50" height="50" relative="1" as="geometry">
            <mxPoint x="1060" y="240" as="sourcePoint" />
            <mxPoint x="1110" y="190" as="targetPoint" />
            <Array as="points">
              <mxPoint x="980" y="130" />
            </Array>
          </mxGeometry>
        </mxCell>
        <mxCell id="PSuLA41knzTdCBgGfqvX-4" value="Thunder" style="html=1;whiteSpace=wrap;" parent="2UvRARKPYpcAx_hyR-RR-79" vertex="1">
          <mxGeometry x="810" y="80" width="80" height="30" as="geometry" />
        </mxCell>
        <mxCell id="sog0CngRyqNYPOwjsTEq-27" value="" style="edgeStyle=orthogonalEdgeStyle;rounded=0;orthogonalLoop=1;jettySize=auto;html=1;" edge="1" parent="2UvRARKPYpcAx_hyR-RR-79" source="PSuLA41knzTdCBgGfqvX-5" target="2UvRARKPYpcAx_hyR-RR-17">
          <mxGeometry relative="1" as="geometry" />
        </mxCell>
        <mxCell id="PSuLA41knzTdCBgGfqvX-5" value="FlashCannon" style="html=1;whiteSpace=wrap;" parent="2UvRARKPYpcAx_hyR-RR-79" vertex="1">
          <mxGeometry x="900" y="50" width="80" height="30" as="geometry" />
        </mxCell>
        <mxCell id="PSuLA41knzTdCBgGfqvX-8" value="" style="edgeStyle=elbowEdgeStyle;elbow=vertical;endArrow=classic;html=1;curved=0;rounded=0;endSize=8;startSize=8;exitX=0.5;exitY=1;exitDx=0;exitDy=0;entryX=0.5;entryY=0;entryDx=0;entryDy=0;" parent="2UvRARKPYpcAx_hyR-RR-79" source="PSuLA41knzTdCBgGfqvX-4" target="2UvRARKPYpcAx_hyR-RR-17" edge="1">
          <mxGeometry width="50" height="50" relative="1" as="geometry">
            <mxPoint x="870" y="85" as="sourcePoint" />
            <mxPoint x="940" y="190" as="targetPoint" />
            <Array as="points">
              <mxPoint x="890" y="130" />
            </Array>
          </mxGeometry>
        </mxCell>
        <mxCell id="2UvRARKPYpcAx_hyR-RR-8" value="Move" style="html=1;whiteSpace=wrap;" parent="2UvRARKPYpcAx_hyR-RR-79" vertex="1">
          <mxGeometry x="505" y="320" width="80" height="30" as="geometry" />
        </mxCell>
        <mxCell id="2UvRARKPYpcAx_hyR-RR-52" value="" style="edgeStyle=elbowEdgeStyle;elbow=vertical;endArrow=classic;html=1;curved=0;rounded=0;endSize=8;startSize=8;entryX=0.5;entryY=0;entryDx=0;entryDy=0;exitX=0.5;exitY=1;exitDx=0;exitDy=0;" parent="2UvRARKPYpcAx_hyR-RR-79" source="2UvRARKPYpcAx_hyR-RR-11" target="2UvRARKPYpcAx_hyR-RR-8" edge="1">
          <mxGeometry width="50" height="50" relative="1" as="geometry">
            <mxPoint x="810" y="140" as="sourcePoint" />
            <mxPoint x="740" y="-20" as="targetPoint" />
            <Array as="points">
              <mxPoint x="680" y="290" />
            </Array>
          </mxGeometry>
        </mxCell>
        <mxCell id="2UvRARKPYpcAx_hyR-RR-51" value="" style="edgeStyle=elbowEdgeStyle;elbow=vertical;endArrow=classic;html=1;curved=0;rounded=0;endSize=8;startSize=8;exitX=0.5;exitY=1;exitDx=0;exitDy=0;entryX=0.5;entryY=0;entryDx=0;entryDy=0;" parent="2UvRARKPYpcAx_hyR-RR-79" source="2UvRARKPYpcAx_hyR-RR-13" target="2UvRARKPYpcAx_hyR-RR-8" edge="1">
          <mxGeometry width="50" height="50" relative="1" as="geometry">
            <mxPoint x="300" y="80" as="sourcePoint" />
            <mxPoint x="350" y="30" as="targetPoint" />
            <Array as="points">
              <mxPoint x="380" y="290" />
            </Array>
          </mxGeometry>
        </mxCell>
        <mxCell id="2UvRARKPYpcAx_hyR-RR-30" value="Amnesia" style="html=1;whiteSpace=wrap;" parent="2UvRARKPYpcAx_hyR-RR-79" vertex="1">
          <mxGeometry x="120" y="120" width="80" height="30" as="geometry" />
        </mxCell>
        <mxCell id="2UvRARKPYpcAx_hyR-RR-49" value="" style="edgeStyle=elbowEdgeStyle;elbow=vertical;endArrow=classic;html=1;curved=0;rounded=0;endSize=8;startSize=8;exitX=0.5;exitY=1;exitDx=0;exitDy=0;entryX=0.5;entryY=0;entryDx=0;entryDy=0;" parent="2UvRARKPYpcAx_hyR-RR-79" source="2UvRARKPYpcAx_hyR-RR-30" target="2UvRARKPYpcAx_hyR-RR-13" edge="1">
          <mxGeometry width="50" height="50" relative="1" as="geometry">
            <mxPoint x="90" y="280" as="sourcePoint" />
            <mxPoint x="200" y="160" as="targetPoint" />
          </mxGeometry>
        </mxCell>
        <mxCell id="2UvRARKPYpcAx_hyR-RR-32" value="Rest" style="html=1;whiteSpace=wrap;" parent="2UvRARKPYpcAx_hyR-RR-79" vertex="1">
          <mxGeometry x="320" y="120" width="80" height="30" as="geometry" />
        </mxCell>
        <mxCell id="2UvRARKPYpcAx_hyR-RR-42" value="" style="edgeStyle=elbowEdgeStyle;elbow=vertical;endArrow=classic;html=1;curved=0;rounded=0;endSize=8;startSize=8;exitX=0.5;exitY=1;exitDx=0;exitDy=0;entryX=0.5;entryY=0;entryDx=0;entryDy=0;" parent="2UvRARKPYpcAx_hyR-RR-79" source="2UvRARKPYpcAx_hyR-RR-32" target="2UvRARKPYpcAx_hyR-RR-13" edge="1">
          <mxGeometry width="50" height="50" relative="1" as="geometry">
            <mxPoint x="120" y="260" as="sourcePoint" />
            <mxPoint x="190" y="170" as="targetPoint" />
            <Array as="points" />
          </mxGeometry>
        </mxCell>
        <mxCell id="2UvRARKPYpcAx_hyR-RR-27" value="Confide" style="html=1;whiteSpace=wrap;" parent="2UvRARKPYpcAx_hyR-RR-79" vertex="1">
          <mxGeometry x="20" y="120" width="80" height="30" as="geometry" />
        </mxCell>
        <mxCell id="2UvRARKPYpcAx_hyR-RR-40" value="" style="edgeStyle=elbowEdgeStyle;elbow=vertical;endArrow=classic;html=1;curved=0;rounded=0;endSize=8;startSize=8;exitX=0.5;exitY=1;exitDx=0;exitDy=0;entryX=0.5;entryY=0;entryDx=0;entryDy=0;" parent="2UvRARKPYpcAx_hyR-RR-79" source="2UvRARKPYpcAx_hyR-RR-27" target="2UvRARKPYpcAx_hyR-RR-13" edge="1">
          <mxGeometry width="50" height="50" relative="1" as="geometry">
            <mxPoint x="100" y="240" as="sourcePoint" />
            <mxPoint x="160" y="140" as="targetPoint" />
          </mxGeometry>
        </mxCell>
        <mxCell id="sog0CngRyqNYPOwjsTEq-23" value="Use" style="endArrow=open;endSize=12;dashed=1;html=1;rounded=0;exitX=0.5;exitY=1;exitDx=0;exitDy=0;entryX=0.25;entryY=0;entryDx=0;entryDy=0;" edge="1" parent="2UvRARKPYpcAx_hyR-RR-82" source="2UvRARKPYpcAx_hyR-RR-86" target="PSuLA41knzTdCBgGfqvX-4">
          <mxGeometry width="160" relative="1" as="geometry">
            <mxPoint x="660" y="196" as="sourcePoint" />
            <mxPoint x="820" y="196" as="targetPoint" />
            <Array as="points">
              <mxPoint x="645" y="256" />
              <mxPoint x="860" y="256" />
            </Array>
          </mxGeometry>
        </mxCell>
        <mxCell id="sog0CngRyqNYPOwjsTEq-24" value="Use" style="endArrow=open;endSize=12;dashed=1;html=1;rounded=0;entryX=0.75;entryY=1;entryDx=0;entryDy=0;exitX=0;exitY=0.75;exitDx=0;exitDy=0;" edge="1" parent="2UvRARKPYpcAx_hyR-RR-82" source="2UvRARKPYpcAx_hyR-RR-88" target="2UvRARKPYpcAx_hyR-RR-86">
          <mxGeometry width="160" relative="1" as="geometry">
            <mxPoint x="670" y="206" as="sourcePoint" />
            <mxPoint x="830" y="206" as="targetPoint" />
            <Array as="points">
              <mxPoint x="668" y="184" />
            </Array>
          </mxGeometry>
        </mxCell>
        <mxCell id="sog0CngRyqNYPOwjsTEq-14" value="" style="endArrow=none;html=1;rounded=0;entryX=0.5;entryY=1;entryDx=0;entryDy=0;fillColor=#a20025;strokeColor=#6F0000;" edge="1" parent="1" target="2UvRARKPYpcAx_hyR-RR-65">
          <mxGeometry width="50" height="50" relative="1" as="geometry">
            <mxPoint x="230" y="270" as="sourcePoint" />
            <mxPoint x="400" y="210" as="targetPoint" />
          </mxGeometry>
        </mxCell>
        <mxCell id="sog0CngRyqNYPOwjsTEq-26" value="" style="edgeStyle=elbowEdgeStyle;elbow=vertical;endArrow=classic;html=1;curved=0;rounded=0;endSize=8;startSize=8;entryX=0.5;entryY=0;entryDx=0;entryDy=0;" edge="1" parent="1" target="2UvRARKPYpcAx_hyR-RR-17">
          <mxGeometry width="50" height="50" relative="1" as="geometry">
            <mxPoint x="980" y="490" as="sourcePoint" />
            <mxPoint x="980" y="590" as="targetPoint" />
            <Array as="points" />
          </mxGeometry>
        </mxCell>
        <mxCell id="sog0CngRyqNYPOwjsTEq-25" value="" style="endArrow=diamondThin;endFill=0;endSize=24;html=1;rounded=0;entryX=0.5;entryY=1;entryDx=0;entryDy=0;exitX=0.5;exitY=0;exitDx=0;exitDy=0;fillColor=#008a00;strokeColor=#005700;" edge="1" parent="1" source="2UvRARKPYpcAx_hyR-RR-27" target="2UvRARKPYpcAx_hyR-RR-67">
          <mxGeometry width="160" relative="1" as="geometry">
            <mxPoint x="230" y="370" as="sourcePoint" />
            <mxPoint x="260" y="380" as="targetPoint" />
            <Array as="points">
              <mxPoint x="100" y="460" />
              <mxPoint x="100" y="380" />
              <mxPoint x="230" y="380" />
            </Array>
          </mxGeometry>
        </mxCell>
        <mxCell id="sog0CngRyqNYPOwjsTEq-28" value="" style="endArrow=diamondThin;endFill=0;endSize=24;html=1;rounded=0;entryX=0.5;entryY=1;entryDx=0;entryDy=0;exitX=0.5;exitY=0;exitDx=0;exitDy=0;fillColor=#008a00;strokeColor=#005700;" edge="1" parent="1" source="2UvRARKPYpcAx_hyR-RR-30" target="2UvRARKPYpcAx_hyR-RR-67">
          <mxGeometry width="160" relative="1" as="geometry">
            <mxPoint x="110" y="530" as="sourcePoint" />
            <mxPoint x="240" y="334" as="targetPoint" />
            <Array as="points">
              <mxPoint x="200" y="440" />
              <mxPoint x="200" y="380" />
              <mxPoint x="230" y="380" />
            </Array>
          </mxGeometry>
        </mxCell>
        <mxCell id="sog0CngRyqNYPOwjsTEq-29" value="" style="endArrow=diamondThin;endFill=0;endSize=24;html=1;rounded=0;entryX=0.5;entryY=1;entryDx=0;entryDy=0;exitX=0.5;exitY=0;exitDx=0;exitDy=0;fillColor=#008a00;strokeColor=#005700;" edge="1" parent="1" source="2UvRARKPYpcAx_hyR-RR-31" target="2UvRARKPYpcAx_hyR-RR-67">
          <mxGeometry width="160" relative="1" as="geometry">
            <mxPoint x="120" y="540" as="sourcePoint" />
            <mxPoint x="250" y="344" as="targetPoint" />
            <Array as="points">
              <mxPoint x="300" y="460" />
              <mxPoint x="300" y="380" />
              <mxPoint x="230" y="380" />
            </Array>
          </mxGeometry>
        </mxCell>
        <mxCell id="sog0CngRyqNYPOwjsTEq-31" value="" style="endArrow=diamondThin;endFill=0;endSize=24;html=1;rounded=0;entryX=0.5;entryY=1;entryDx=0;entryDy=0;exitX=0.5;exitY=0;exitDx=0;exitDy=0;fillColor=#008a00;strokeColor=#005700;" edge="1" parent="1" source="PSuLA41knzTdCBgGfqvX-4" target="2UvRARKPYpcAx_hyR-RR-67">
          <mxGeometry width="160" relative="1" as="geometry">
            <mxPoint x="130" y="550" as="sourcePoint" />
            <mxPoint x="260" y="354" as="targetPoint" />
            <Array as="points">
              <mxPoint x="890" y="440" />
              <mxPoint x="890" y="380" />
              <mxPoint x="230" y="380" />
            </Array>
          </mxGeometry>
        </mxCell>
        <mxCell id="sog0CngRyqNYPOwjsTEq-32" value="" style="endArrow=diamondThin;endFill=0;endSize=24;html=1;rounded=0;entryX=0.75;entryY=1;entryDx=0;entryDy=0;exitX=0.5;exitY=0;exitDx=0;exitDy=0;fillColor=#fa6800;strokeColor=#C73500;" edge="1" parent="1" source="2UvRARKPYpcAx_hyR-RR-32" target="2UvRARKPYpcAx_hyR-RR-65">
          <mxGeometry width="160" relative="1" as="geometry">
            <mxPoint x="140" y="560" as="sourcePoint" />
            <mxPoint x="270" y="364" as="targetPoint" />
            <Array as="points">
              <mxPoint x="400" y="480" />
              <mxPoint x="400" y="280" />
              <mxPoint x="250" y="280" />
            </Array>
          </mxGeometry>
        </mxCell>
        <mxCell id="sog0CngRyqNYPOwjsTEq-33" value="" style="endArrow=diamondThin;endFill=0;endSize=24;html=1;rounded=0;entryX=0.75;entryY=1;entryDx=0;entryDy=0;exitX=0.25;exitY=0;exitDx=0;exitDy=0;fillColor=#fa6800;strokeColor=#C73500;" edge="1" parent="1" source="2UvRARKPYpcAx_hyR-RR-27" target="2UvRARKPYpcAx_hyR-RR-65">
          <mxGeometry width="160" relative="1" as="geometry">
            <mxPoint x="150" y="570" as="sourcePoint" />
            <mxPoint x="280" y="374" as="targetPoint" />
            <Array as="points">
              <mxPoint x="80" y="280" />
              <mxPoint x="250" y="280" />
            </Array>
          </mxGeometry>
        </mxCell>
        <mxCell id="sog0CngRyqNYPOwjsTEq-34" value="" style="endArrow=diamondThin;endFill=0;endSize=24;html=1;rounded=0;entryX=0.75;entryY=1;entryDx=0;entryDy=0;exitX=0.5;exitY=0;exitDx=0;exitDy=0;fillColor=#fa6800;strokeColor=#C73500;" edge="1" parent="1" source="2UvRARKPYpcAx_hyR-RR-45" target="2UvRARKPYpcAx_hyR-RR-65">
          <mxGeometry width="160" relative="1" as="geometry">
            <mxPoint x="160" y="580" as="sourcePoint" />
            <mxPoint x="290" y="384" as="targetPoint" />
            <Array as="points">
              <mxPoint x="1070" y="280" />
              <mxPoint x="250" y="280" />
            </Array>
          </mxGeometry>
        </mxCell>
        <mxCell id="sog0CngRyqNYPOwjsTEq-35" value="" style="endArrow=diamondThin;endFill=0;endSize=24;html=1;rounded=0;entryX=0.75;entryY=1;entryDx=0;entryDy=0;exitX=0;exitY=0.5;exitDx=0;exitDy=0;fillColor=#e3c800;strokeColor=#B09500;" edge="1" parent="1" source="2UvRARKPYpcAx_hyR-RR-54" target="2UvRARKPYpcAx_hyR-RR-71">
          <mxGeometry width="160" relative="1" as="geometry">
            <mxPoint x="170" y="590" as="sourcePoint" />
            <mxPoint x="300" y="394" as="targetPoint" />
            <Array as="points">
              <mxPoint x="480" y="525" />
              <mxPoint x="480" y="480" />
              <mxPoint x="380" y="480" />
            </Array>
          </mxGeometry>
        </mxCell>
        <mxCell id="sog0CngRyqNYPOwjsTEq-36" value="" style="endArrow=diamondThin;endFill=0;endSize=24;html=1;rounded=0;entryX=0.25;entryY=1;entryDx=0;entryDy=0;exitX=0.5;exitY=0;exitDx=0;exitDy=0;strokeColor=#0011FF;" edge="1" parent="1" source="PSuLA41knzTdCBgGfqvX-5" target="2UvRARKPYpcAx_hyR-RR-66">
          <mxGeometry width="160" relative="1" as="geometry">
            <mxPoint x="180" y="600" as="sourcePoint" />
            <mxPoint x="310" y="404" as="targetPoint" />
            <Array as="points">
              <mxPoint x="980" y="360" />
              <mxPoint x="580" y="360" />
              <mxPoint x="580" y="210" />
              <mxPoint x="210" y="210" />
            </Array>
          </mxGeometry>
        </mxCell>
        <mxCell id="sog0CngRyqNYPOwjsTEq-37" value="" style="endArrow=diamondThin;endFill=0;endSize=24;html=1;rounded=0;entryX=0.25;entryY=1;entryDx=0;entryDy=0;exitX=1;exitY=0.5;exitDx=0;exitDy=0;strokeColor=#0011FF;" edge="1" parent="1" source="2UvRARKPYpcAx_hyR-RR-53" target="2UvRARKPYpcAx_hyR-RR-66">
          <mxGeometry width="160" relative="1" as="geometry">
            <mxPoint x="190" y="610" as="sourcePoint" />
            <mxPoint x="320" y="414" as="targetPoint" />
            <Array as="points">
              <mxPoint x="840" y="525" />
              <mxPoint x="840" y="360" />
              <mxPoint x="580" y="360" />
              <mxPoint x="580" y="210" />
              <mxPoint x="210" y="210" />
            </Array>
          </mxGeometry>
        </mxCell>
        <mxCell id="sog0CngRyqNYPOwjsTEq-38" value="" style="endArrow=diamondThin;endFill=0;endSize=24;html=1;rounded=0;entryX=0.25;entryY=1;entryDx=0;entryDy=0;exitX=0.5;exitY=0;exitDx=0;exitDy=0;fillColor=#1ba1e2;strokeColor=#006EAF;" edge="1" parent="1" source="2UvRARKPYpcAx_hyR-RR-58" target="2UvRARKPYpcAx_hyR-RR-68">
          <mxGeometry width="160" relative="1" as="geometry">
            <mxPoint x="200" y="620" as="sourcePoint" />
            <mxPoint x="330" y="424" as="targetPoint" />
            <Array as="points">
              <mxPoint x="770" y="390" />
              <mxPoint x="590" y="390" />
              <mxPoint x="590" y="200" />
              <mxPoint x="340" y="200" />
            </Array>
          </mxGeometry>
        </mxCell>
        <mxCell id="sog0CngRyqNYPOwjsTEq-40" value="" style="endArrow=diamondThin;endFill=0;endSize=24;html=1;rounded=0;entryX=0.75;entryY=1;entryDx=0;entryDy=0;exitX=0;exitY=0.5;exitDx=0;exitDy=0;strokeColor=#E74AFF;" edge="1" parent="1" source="2UvRARKPYpcAx_hyR-RR-56" target="2UvRARKPYpcAx_hyR-RR-69">
          <mxGeometry width="160" relative="1" as="geometry">
            <mxPoint x="430" y="310" as="sourcePoint" />
            <mxPoint x="590" y="310" as="targetPoint" />
            <Array as="points">
              <mxPoint x="525" y="455" />
            </Array>
          </mxGeometry>
        </mxCell>
      </root>
    </mxGraphModel>
  </diagram>
</mxfile>
